<svg xmlns="http://www.w3.org/2000/svg" version="1.1" viewBox="42 42.43 428 427.57"><path d="" stroke="none" fill="#5884a4" fill-rule="evenodd"></path><path d="M 195.568 43.079 C 187.905 43.568, 172.380 44.890, 161.068 46.015 C 149.755 47.140, 133.075 49.210, 124 50.616 C 114.925 52.022, 101.804 54.483, 94.842 56.085 C 87.880 57.688, 78.146 60.318, 73.211 61.931 C 68.277 63.544, 61.148 66.356, 57.369 68.181 C 53.591 70.007, 48.587 73.401, 46.250 75.724 L 42 79.947 42 123.474 L 42 167 45.971 170.971 C 48.155 173.155, 52.542 176.254, 55.721 177.857 C 58.899 179.460, 65.354 182.131, 70.065 183.792 C 74.775 185.454, 84.225 188.174, 91.065 189.838 C 97.904 191.502, 110.475 194.008, 119 195.407 C 127.525 196.807, 140.575 198.641, 148 199.483 C 155.425 200.325, 169.375 201.721, 179 202.585 L 196.500 204.156 242 204.696 L 287.500 205.236 308.427 204.083 C 319.937 203.449, 336.587 202.267, 345.427 201.456 C 354.267 200.645, 369.825 198.832, 380 197.427 C 390.175 196.021, 405.475 193.333, 414 191.452 C 422.525 189.571, 433.744 186.655, 438.932 184.972 C 444.120 183.289, 451.897 180.074, 456.215 177.827 L 464.067 173.742 467.033 170.143 L 470 166.544 470 123.101 L 470 79.657 465.559 75.402 L 461.119 71.147 453.809 67.688 C 449.789 65.785, 442.706 63.034, 438.070 61.574 C 433.433 60.113, 424.984 57.819, 419.295 56.474 C 413.605 55.130, 402.324 52.916, 394.225 51.553 C 386.126 50.191, 371.400 48.178, 361.500 47.079 C 351.600 45.980, 337.650 44.562, 330.500 43.927 L 317.500 42.774 263.500 42.481 C 233.800 42.320, 203.230 42.589, 195.568 43.079 M 50.307 204.892 C 48.111 206.483, 45.344 209.019, 44.157 210.527 L 42 213.270 42 256.319 L 42 299.368 46.761 303.934 C 49.380 306.445, 54.096 309.747, 57.241 311.271 C 60.387 312.795, 67.664 315.616, 73.412 317.539 C 79.160 319.463, 88.956 322.166, 95.181 323.545 C 101.407 324.925, 113.250 327.141, 121.500 328.470 C 129.750 329.798, 142.973 331.595, 150.884 332.462 C 158.795 333.330, 173.870 334.714, 184.384 335.539 C 194.898 336.365, 219.475 337.318, 239 337.658 L 274.500 338.276 300 337.084 C 314.025 336.428, 334.950 335.006, 346.500 333.923 C 358.050 332.840, 373.800 331.038, 381.500 329.919 C 389.200 328.800, 401.125 326.776, 408 325.422 C 414.875 324.068, 425.294 321.611, 431.154 319.963 C 437.013 318.315, 444.910 315.687, 448.702 314.123 C 452.494 312.559, 457.559 310.041, 459.958 308.526 C 462.357 307.012, 465.598 304.374, 467.160 302.663 L 470 299.554 470 256.312 L 470 213.070 466.930 209.573 C 465.242 207.650, 462.328 205.130, 460.455 203.972 L 457.050 201.868 447.775 205.537 C 442.674 207.554, 433.550 210.500, 427.500 212.082 C 421.450 213.664, 410.425 216.109, 403 217.514 C 395.575 218.920, 380.950 221.163, 370.500 222.498 C 360.050 223.833, 341.375 225.717, 329 226.683 L 306.500 228.441 256 228.424 L 205.500 228.408 183.103 226.683 C 170.785 225.735, 152.104 223.852, 141.591 222.499 C 131.078 221.146, 116.408 218.896, 108.992 217.498 C 101.576 216.101, 90.331 213.570, 84.004 211.874 C 77.677 210.179, 68.627 207.263, 63.892 205.396 C 59.158 203.528, 55.063 202, 54.792 202 C 54.522 202, 52.503 203.302, 50.307 204.892 M 50.501 337.449 C 47.892 339.304, 44.914 342.100, 43.885 343.661 L 42.013 346.500 42.007 389.276 L 42 432.053 46.377 436.430 L 50.754 440.806 58.127 444.319 C 62.182 446.252, 69.960 449.213, 75.411 450.901 C 80.862 452.588, 91.437 455.300, 98.911 456.926 C 106.385 458.552, 120.375 461.020, 130 462.411 C 139.625 463.802, 154.925 465.627, 164 466.467 C 173.075 467.306, 187.700 468.443, 196.500 468.993 C 205.300 469.543, 232.075 469.993, 256 469.993 C 279.925 469.993, 306.700 469.546, 315.500 468.999 C 324.300 468.453, 339.150 467.301, 348.500 466.439 C 357.850 465.578, 372.954 463.795, 382.064 462.477 C 391.174 461.159, 404.899 458.738, 412.564 457.096 C 420.229 455.453, 430.100 453.008, 434.500 451.661 C 438.900 450.315, 444.975 448.230, 448 447.029 C 451.025 445.828, 455.827 443.517, 458.671 441.894 C 461.516 440.271, 465.228 437.365, 466.921 435.437 L 470 431.930 470 388.930 L 470 345.930 468.325 343.374 C 467.404 341.968, 464.409 339.308, 461.670 337.464 L 456.689 334.109 453.966 335.518 C 452.468 336.292, 448.264 338.047, 444.622 339.418 C 440.981 340.788, 432.939 343.263, 426.751 344.918 C 420.563 346.572, 409.248 349.074, 401.607 350.477 C 393.965 351.880, 378.819 354.133, 367.947 355.482 C 357.076 356.832, 337.228 358.703, 323.841 359.640 L 299.500 361.344 256 361.344 L 212.500 361.344 188.332 359.651 C 175.040 358.720, 155.240 356.842, 144.332 355.478 C 133.424 354.114, 118.200 351.844, 110.500 350.435 C 102.800 349.025, 91.437 346.531, 85.249 344.891 C 79.061 343.251, 71.019 340.788, 67.378 339.418 C 63.736 338.047, 59.517 336.284, 58.001 335.501 L 55.246 334.076 50.501 337.449" stroke="none" fill="#000000" fill-rule="evenodd"></path></svg>